<?xml version="1.0" standalone="no"?>
<!DOCTYPE svg PUBLIC "-//W3C//DTD SVG 20010904//EN"
 "http://www.w3.org/TR/2001/REC-SVG-20010904/DTD/svg10.dtd">
<svg version="1.0" xmlns="http://www.w3.org/2000/svg"
 width="205.100000pt" height="48.800000pt" viewBox="0 0 2051 488"
 preserveAspectRatio="xMidYMid meet">

<g transform="translate(0.000000,488.000000) scale(0.100000,-0.100000)"
fill="#000000" stroke="none">
<path d="M6075 4190 c-423 -43 -774 -175 -989 -371 -226 -207 -326 -538 -271
-899 34 -227 136 -399 329 -555 198 -160 424 -242 1066 -385 518 -115 610
-163 610 -316 0 -110 -50 -159 -200 -201 -95 -26 -457 -26 -549 0 -183 52
-260 137 -277 305 -3 31 -7 67 -10 79 l-4 23 -515 0 c-483 0 -515 -1 -516 -17
-10 -213 55 -480 159 -652 138 -228 405 -388 794 -475 427 -96 950 -98 1323
-7 477 118 777 377 880 762 49 185 58 424 20 589 -70 306 -321 541 -715 668
-152 49 -432 120 -635 161 -479 97 -609 155 -644 286 -41 155 143 265 441 265
181 0 279 -32 360 -117 51 -54 80 -115 87 -186 l6 -60 515 -1 515 -1 -2 80
c-7 251 -93 462 -253 624 -193 194 -502 330 -882 387 -123 18 -515 27 -643 14z"/>
<path d="M8100 2425 l0 -1715 1500 0 1500 0 0 410 0 410 -950 0 -950 0 0 265
0 265 799 0 799 0 1 390 2 390 -801 0 -800 0 0 240 0 240 931 2 930 3 1 395
c0 217 0 401 -1 408 -1 9 -304 12 -1481 12 l-1480 0 0 -1715z"/>
<path d="M11360 2425 l0 -1715 550 0 550 0 0 1715 0 1715 -550 0 -550 0 0
-1715z"/>
<path d="M12860 2425 l0 -1715 550 0 550 0 0 384 0 384 295 241 c162 133 298
241 302 241 5 -1 99 -161 211 -358 111 -196 267 -472 347 -612 79 -140 148
-261 152 -268 6 -10 140 -12 655 -10 l647 3 -146 235 c-80 129 -266 429 -413
665 -591 949 -654 1051 -673 1083 l-19 33 53 62 c30 34 225 258 433 497 209
239 421 482 471 539 49 58 129 148 178 202 48 53 87 100 87 103 0 3 -305 6
-679 6 l-678 0 -609 -731 -609 -730 -3 730 -2 731 -550 0 -550 0 0 -1715z"/>
<path d="M16623 3008 c3 -1236 1 -1190 62 -1403 112 -392 407 -685 838 -834
463 -160 1158 -158 1617 3 185 66 277 115 416 222 263 204 423 502 463 867 7
63 11 474 11 1187 l0 1090 -547 -2 -547 -3 0 -1075 c-1 -1074 -1 -1075 -23
-1151 -53 -187 -159 -318 -309 -385 -160 -70 -430 -67 -578 8 -138 69 -226
180 -278 349 l-23 74 -3 1093 -3 1092 -550 0 -550 0 4 -1132z"/>
</g>
</svg>
